<svg xmlns="http://www.w3.org/2000/svg" viewBox="0 0 1920 1080" preserveAspectRatio="xMidYMax meet">
  <g fill="#C9A96E">
    <path d="M 1152.882812 585.097656 L 1160.53125 595.835938 C 1159.410156 590.78125 1158.988281 586.78125 1160.671875 581.726562 C 1161.09375 580.535156 1165.65625 579.410156 1163.621094 574.425781 C 1172.253906 579.621094 1173.449219 590.78125 1178.082031 598.992188 L 1188.046875 626.507812 L 1186.574219 611.207031 C 1190.152344 612.820312 1191.695312 622.15625 1196.257812 621.734375 C 1199.910156 621.382812 1209.734375 611.980469 1214.226562 610.363281 C 1207.070312 596.675781 1197.242188 583.902344 1194.222656 568.390625 L 1209.59375 587.484375 L 1219.492188 606.644531 C 1233.25 599.34375 1227.074219 600.957031 1226.371094 590.640625 C 1226.230469 588.746094 1226.019531 569.445312 1229.390625 573.023438 L 1234.019531 591.414062 C 1236.898438 593.800781 1248.691406 581.09375 1250.867188 578.429688 C 1254.515625 573.867188 1275.714844 538.347656 1283.015625 544.035156 L 1263.148438 589.9375 C 1266.308594 589.097656 1269.1875 583.269531 1271.574219 582.289062 C 1275.574219 580.605469 1273.398438 589.519531 1277.679688 588.394531 C 1279.082031 588.042969 1280.277344 580.882812 1284.558594 582.289062 C 1283.292969 584.535156 1289.824219 608.1875 1293.753906 603.695312 C 1291.859375 600.609375 1299.507812 585.445312 1301.402344 586.851562 C 1301.542969 590.148438 1304.914062 593.308594 1304.5625 596.605469 C 1304.492188 597.589844 1301.894531 597.449219 1300.984375 599.414062 C 1298.667969 604.117188 1295.859375 615.558594 1292.980469 618.925781 C 1290.382812 622.015625 1289.683594 617.3125 1287.648438 617.382812 C 1287.15625 626.859375 1294.59375 634.230469 1302.175781 638.792969 L 1302.949219 634.230469 C 1303.859375 634.300781 1305.683594 633.949219 1305.964844 634.230469 C 1307.441406 635.421875 1311.792969 654.863281 1314.390625 655.707031 C 1321.828125 658.09375 1318.671875 640.476562 1323.582031 637.316406 L 1337.339844 657.179688 L 1338.113281 652.617188 C 1340.921875 648.6875 1346.464844 673.183594 1347.308594 674.027344 C 1351.378906 678.097656 1350.1875 663.5 1351.871094 662.585938 C 1352.292969 660.902344 1353.90625 661.601562 1354.957031 662.515625 C 1357.835938 664.902344 1365.699219 676.484375 1367.804688 680.273438 C 1371.945312 687.433594 1379.734375 704.980469 1377.910156 712.839844 C 1377.628906 714.175781 1373.769531 713.402344 1374.894531 716.140625 C 1378.191406 724.351562 1385.351562 715.296875 1387.105469 716.070312 C 1389.914062 717.332031 1399.878906 731.300781 1402.125 734.8125 C 1417.289062 758.394531 1424.796875 787.945312 1439.886719 811.808594 C 1440.449219 796.929688 1423.183594 785.066406 1423.816406 768.992188 C 1436.941406 781.417969 1447.257812 799.808594 1454.417969 816.441406 C 1457.296875 816.792969 1455.609375 813.355469 1455.261719 811.808594 C 1453.644531 805 1449.433594 798.894531 1448.3125 792.015625 C 1451.1875 789.136719 1466.351562 806.757812 1468.945312 808.863281 C 1470.070312 809.070312 1470 807.316406 1469.71875 806.617188 C 1466.632812 798.964844 1452.804688 786.890625 1449.855469 777.488281 C 1449.503906 776.433594 1451.117188 776.433594 1452.101562 776.785156 C 1455.890625 777.976562 1491.757812 813.984375 1496.53125 819.601562 C 1502.988281 827.25 1507.550781 837.148438 1514.921875 844.097656 C 1517.519531 842.484375 1514.21875 840.726562 1513.378906 839.535156 C 1506.640625 829.917969 1497.445312 819.953125 1498.074219 807.386719 C 1516.183594 827.742188 1536.46875 845.78125 1551.703125 868.59375 C 1551.632812 864.382812 1548.542969 857.503906 1546.578125 853.785156 C 1544.191406 849.082031 1540.542969 844.167969 1537.734375 839.675781 C 1536.890625 838.339844 1533.875 836.375 1536.328125 834.902344 C 1551.980469 849.359375 1565.949219 865.503906 1576.898438 883.824219 C 1579.355469 884.246094 1578.515625 881.789062 1578.09375 880.316406 C 1565.316406 836.867188 1536.257812 827.671875 1508.746094 798.121094 C 1500.882812 789.699219 1493.304688 779.453125 1485.792969 770.539062 C 1476.597656 759.589844 1464.386719 750.464844 1460.523438 735.371094 L 1456.734375 743.023438 C 1442.136719 726.25 1424.796875 711.4375 1415.882812 690.519531 L 1406.199219 660.410156 L 1455.960938 729.265625 C 1464.105469 726.25 1465.15625 713.964844 1473.71875 709.542969 C 1501.375 695.363281 1500.320312 742.390625 1512.464844 751.515625 C 1522.011719 758.675781 1517.167969 746.8125 1522.503906 741.550781 C 1527.273438 748.636719 1538.996094 756.710938 1540.542969 764.851562 C 1540.960938 766.886719 1542.4375 766.886719 1539.347656 768.992188 L 1522.503906 753.761719 C 1520.746094 755.308594 1521.660156 759.449219 1522.503906 761.414062 C 1523.625 764.011719 1540.890625 780.574219 1544.613281 785.207031 C 1560.753906 805.210938 1576.546875 828.585938 1586.023438 852.519531 L 1578.375 847.183594 L 1577.601562 853.292969 L 1568.40625 844.097656 C 1567.285156 843.886719 1567.355469 845.640625 1567.632812 846.34375 C 1570.792969 854.132812 1585.601562 866.347656 1591.359375 873.15625 L 1587.5 862.488281 C 1590.023438 859.890625 1600.414062 874.839844 1602.027344 876.242188 C 1606.800781 869.4375 1595.148438 862.488281 1591.78125 855.890625 C 1589.953125 852.378906 1587.21875 845.078125 1588.269531 841.078125 C 1595.429688 856.589844 1611.222656 865.222656 1619.714844 879.332031 C 1622.242188 879.753906 1621.257812 877.4375 1620.910156 875.894531 C 1620.136719 872.453125 1618.3125 869.085938 1617.398438 865.644531 C 1617.117188 864.523438 1615.292969 859.609375 1618.242188 861.785156 C 1625.402344 872.453125 1634.664062 882.703125 1635.085938 896.25 C 1640.773438 897.863281 1636.980469 889.71875 1638.175781 888.597656 C 1639.859375 888.457031 1641.261719 888.457031 1642.808594 889.300781 C 1645.964844 891.125 1657.6875 909.09375 1661.40625 913.585938 C 1662.53125 914.917969 1664.425781 918.5 1664.214844 913.867188 C 1657.054688 900.53125 1649.476562 887.195312 1639.71875 875.613281 C 1613.046875 844.167969 1573.320312 811.808594 1553.246094 775.382812 C 1550.929688 771.238281 1546.929688 764.851562 1547.140625 760.078125 C 1587.847656 805.070312 1622.382812 855.820312 1668.144531 896.25 C 1673.621094 901.089844 1680.921875 906.988281 1687.097656 910.988281 C 1688.429688 911.832031 1690.464844 914.777344 1691.871094 912.320312 L 1649.054688 866.347656 C 1645.476562 861.785156 1639.367188 860.589844 1635.15625 857.292969 C 1631.578125 854.554688 1624.207031 846.554688 1625.261719 842.691406 C 1637.121094 852.449219 1651.933594 856.730469 1664.847656 865.925781 C 1687.871094 882.421875 1699.449219 905.722656 1717.140625 926.851562 L 1700.292969 894.703125 C 1718.050781 911.480469 1739.460938 923.972656 1759.113281 938.503906 C 1779.886719 953.875 1802.910156 975.492188 1825.300781 987.144531 C 1840.324219 994.933594 1855.625 997.601562 1868.679688 1009.535156 C 1879.839844 1019.710938 1887.277344 1035.503906 1897.105469 1046.945312 C 1903.140625 1053.964844 1918.09375 1063.792969 1918.511719 1072.988281 C 1918.582031 1075.023438 1918.652344 1076.003906 1916.199219 1075.300781 C 1913.742188 1074.601562 1901.386719 1066.949219 1897.527344 1064.84375 C 1870.996094 1050.457031 1843.269531 1033.679688 1817.511719 1017.746094 C 1806.769531 1011.078125 1776.167969 987.777344 1767.605469 984.96875 C 1766.832031 984.6875 1765.078125 984.546875 1765.359375 985.742188 C 1783.75 1006.9375 1822.5625 1030.453125 1824.949219 1060.914062 C 1825.089844 1063.019531 1826.074219 1065.40625 1822.84375 1064.5625 C 1818.703125 1063.441406 1798.488281 1046.59375 1797.578125 1047.789062 C 1797.785156 1052.140625 1801.296875 1054.878906 1802.070312 1059.371094 C 1803.402344 1066.738281 1794.558594 1060.703125 1792.171875 1058.527344 C 1788.523438 1055.15625 1787.1875 1048.628906 1782.273438 1046.242188 C 1794.066406 1081.550781 1765.570312 1057.195312 1755.460938 1044.699219 C 1753.496094 1045.683594 1755.320312 1048.910156 1755.953125 1050.386719 C 1756.445312 1051.578125 1763.324219 1064.773438 1757.078125 1063.019531 C 1745.847656 1059.859375 1725.773438 1043.296875 1715.664062 1041.613281 C 1714.753906 1041.472656 1713.136719 1041.191406 1713.347656 1042.382812 C 1741.984375 1074.742188 1710.542969 1061.195312 1694.257812 1047.71875 C 1684.007812 1039.226562 1667.445312 1017.675781 1654.320312 1015.710938 C 1649.054688 1014.9375 1643.4375 1017.253906 1639.859375 1016.484375 C 1632.277344 1014.867188 1619.082031 1000.480469 1613.046875 998.796875 C 1608.765625 997.601562 1611.714844 1003.988281 1610.800781 1004.902344 C 1596.550781 1002.65625 1586.304688 990.582031 1577.109375 980.40625 C 1583.074219 1013.464844 1627.714844 1013.816406 1644.421875 1037.820312 C 1642.738281 1040.207031 1638.804688 1039.15625 1639.859375 1042.382812 C 1643.789062 1047.4375 1661.898438 1064.074219 1662.601562 1068.773438 C 1663.304688 1073.476562 1655.160156 1076.777344 1656.566406 1083.445312 C 1656.777344 1084.496094 1668.144531 1089.621094 1667.445312 1100.5 C 1667.304688 1102.816406 1668.003906 1103.167969 1665.269531 1102.605469 C 1654.390625 1100.359375 1659.371094 1093.339844 1658.179688 1092.078125 C 1657.757812 1091.65625 1649.335938 1092.640625 1647.511719 1089.691406 L 1594.585938 1044.628906 L 1592.339844 1045.402344 L 1610.660156 1070.671875 C 1592.691406 1066.039062 1582.375 1051.929688 1569.390625 1040.839844 C 1568.40625 1039.996094 1554.15625 1028.484375 1555.632812 1033.1875 C 1561.175781 1041.332031 1568.476562 1047.4375 1566.300781 1058.457031 C 1557.808594 1055.230469 1553.457031 1060.773438 1545.59375 1060.070312 C 1541.101562 1059.652344 1537.3125 1056.914062 1533.101562 1055.648438 C 1460.3125 1009.464844 1377.769531 974.230469 1317.476562 911.550781 C 1297.683594 890.984375 1271.433594 863.820312 1254.027344 841.851562 C 1242.933594 827.882812 1237.671875 813.355469 1227.703125 799.316406 C 1205.101562 767.589844 1182.992188 752.078125 1150.988281 732.144531 C 1136.386719 723.089844 1128.035156 713.542969 1115.398438 703.4375 C 1088.585938 681.957031 1057.28125 660.972656 1031.945312 638.371094 C 1011.800781 620.402344 1004.570312 602.996094 988.355469 583.972656 C 975.160156 568.460938 934.660156 538.210938 930.027344 521.292969 C 927.5 512.027344 939.996094 502.761719 941.609375 493.707031 C 946.945312 493.429688 948.910156 502.414062 954.242188 501.148438 C 956.488281 500.585938 968.070312 490.761719 970.738281 488.375 C 976.074219 483.671875 998.183594 458.964844 1001.269531 457.839844 C 1004.007812 456.789062 1009.90625 460.085938 1012.921875 459.949219 C 1016.503906 459.738281 1050.265625 423.589844 1054.894531 417.972656 C 1067.320312 402.671875 1074.761719 376.773438 1090.273438 367.648438 C 1105.785156 358.523438 1112.3125 370.105469 1120.734375 382.035156 C 1118.277344 384.28125 1107.117188 369.050781 1103.890625 368.28125 L 1103.890625 395.09375 C 1103.890625 409.339844 1081.917969 437.695312 1077.847656 450.191406 C 1077.566406 450.964844 1077.425781 452.71875 1078.621094 452.4375 C 1090.414062 442.679688 1095.746094 428.574219 1103.117188 415.726562 C 1112.03125 424.710938 1108.660156 436.574219 1106.90625 447.804688 L 1100.800781 434.046875 L 1100.800781 457.773438 C 1100.800781 477.074219 1072.515625 510.90625 1064.441406 530.066406 C 1057.84375 545.578125 1053.773438 564.039062 1048.789062 580.183594 C 1048.578125 584.746094 1050.542969 581.515625 1051.597656 579.902344 C 1053.984375 576.394531 1055.386719 570.917969 1059.457031 568.671875 L 1051.808594 596.1875 C 1057.351562 590.429688 1061.84375 582.921875 1066.195312 576.183594 C 1067.882812 573.585938 1072.65625 563.054688 1073.214844 562.566406 C 1078.972656 557.089844 1071.953125 574.847656 1076.234375 574.777344 L 1082.339844 561.019531 L 1080.867188 582.429688 L 1087.746094 570.144531 L 1091.535156 567.128906 L 1086.972656 596.1875 L 1096.097656 580.882812 L 1091.535156 608.398438 C 1095.535156 612.679688 1099.605469 591.132812 1102.203125 591.554688 C 1105.433594 597.378906 1101.082031 606.785156 1106.765625 609.875 L 1109.082031 599.132812 C 1115.820312 603.414062 1113.503906 612.820312 1119.050781 617.523438 C 1116.453125 593.238281 1121.789062 565.164062 1109.855469 543.261719 C 1117.855469 542.351562 1117.644531 559.125 1120.242188 566.496094 C 1124.035156 577.09375 1132.597656 586.640625 1136.035156 597.519531 C 1136.738281 598.011719 1139.476562 595.976562 1140.527344 596.675781 C 1143.125 598.363281 1147.617188 619.136719 1148.109375 623.558594 C 1150.496094 623.210938 1152.671875 614.785156 1152.671875 613.59375 L 1152.671875 585.308594 Z M 1028.855469 468.792969 C 1017.34375 467.386719 1021.554688 476.019531 1018.257812 481.917969 C 1016.011719 485.917969 1009.695312 487.53125 1006.675781 490.269531 C 1003.660156 493.007812 985.058594 511.746094 987.585938 514.765625 C 1003.449219 499.746094 1034.542969 496.726562 1028.925781 468.863281 Z M 1076.304688 502.480469 L 1010.464844 545.296875 C 1039.875 540.105469 1060.792969 528.3125 1076.304688 502.480469 Z M 1212.613281 643.285156 C 1215.492188 646.019531 1232.898438 627.839844 1229.460938 621.875 C 1221.738281 627.28125 1216.054688 634.578125 1212.613281 643.285156 Z M 1439.1875 843.746094 C 1434.765625 832.304688 1426.203125 823.039062 1421.640625 811.597656 C 1413.777344 791.875 1417.289062 786.820312 1402.40625 768.082031 C 1387.527344 749.339844 1367.171875 732.355469 1351.167969 713.753906 C 1343.167969 704.488281 1325.339844 674.167969 1314.109375 672.691406 C 1310.949219 672.273438 1309.40625 674.449219 1304.984375 672.761719 C 1297.402344 669.816406 1291.4375 659.847656 1284.628906 655.566406 C 1283.363281 666.445312 1304.28125 682.449219 1305.617188 688.695312 C 1305.964844 690.171875 1304.5625 692.347656 1304.914062 694.171875 C 1310.109375 719.160156 1321.828125 743.304688 1329.410156 767.660156 C 1335.515625 787.3125 1339.167969 807.527344 1345.835938 826.96875 C 1348.710938 827.320312 1346.886719 823.953125 1346.675781 822.339844 C 1343.449219 801.140625 1336.921875 780.855469 1332.429688 760.078125 C 1332.078125 758.535156 1330.882812 754.746094 1333.621094 755.097656 L 1368.855469 856.097656 C 1371.664062 856.449219 1370.191406 852.800781 1369.980469 851.1875 C 1367.523438 832.65625 1360.222656 813.703125 1358.1875 794.894531 C 1360.503906 795.246094 1361.066406 797.773438 1362.046875 799.457031 C 1371.945312 816.089844 1383.808594 838.550781 1385.773438 857.644531 C 1389.210938 855.75 1386.894531 847.253906 1386.265625 844.097656 C 1377.839844 802.195312 1343.238281 770.609375 1335.234375 729.054688 L 1404.09375 856.871094 C 1407.601562 858.414062 1404.792969 854.625 1404.371094 853.503906 C 1399.671875 841.21875 1393.773438 829.566406 1391.878906 816.300781 C 1396.441406 811.878906 1409.355469 838.832031 1413.285156 841.570312 C 1415.460938 843.113281 1417.289062 842.484375 1416.375 840.027344 C 1413.285156 831.8125 1400.371094 820.441406 1394.96875 813.214844 L 1402.195312 814.335938 L 1430.90625 845.289062 C 1435.539062 839.957031 1418.691406 830.832031 1420.9375 828.445312 C 1423.464844 825.847656 1425.148438 832.796875 1427.113281 833.777344 C 1428.449219 834.480469 1430.695312 833.289062 1431.746094 833.847656 C 1434.484375 835.464844 1435.46875 842.484375 1439.328125 843.675781 Z M 1194.222656 663.148438 C 1174.570312 671.921875 1153.023438 676.90625 1145.230469 699.855469 C 1148.460938 702.875 1170.429688 687.996094 1174.148438 685.1875 C 1176.746094 683.222656 1197.382812 666.234375 1194.152344 663.148438 Z M 1609.117188 885.089844 C 1619.644531 884.457031 1610.800781 866.699219 1606.027344 871.332031 C 1604.625 872.664062 1609.820312 882.28125 1609.117188 885.089844 Z M 1632.070312 908.039062 C 1629.050781 900.742188 1627.226562 890.492188 1621.398438 885.089844 C 1622.945312 892.949219 1626.03125 902.425781 1632.070312 908.039062 Z M 1530.996094 978.441406 L 1509.867188 928.464844 L 1501.9375 918.777344 C 1506.429688 940.046875 1514.21875 963.910156 1530.996094 978.441406 Z M 1546.367188 975.351562 C 1547.140625 974.511719 1538.714844 955.488281 1535.628906 958.507812 C 1537.734375 964.894531 1537.804688 973.878906 1546.367188 975.351562 Z M 1730.054688 1012.0625 C 1711.101562 986.863281 1683.660156 970.789062 1655.019531 958.507812 C 1668.285156 976.6875 1698.960938 981.667969 1714.191406 997.25 C 1718.613281 1001.8125 1721.210938 1011.710938 1730.054688 1011.992188 Z M 1730.054688 1012.0625 "  fill-rule="nonzero"/>
    <path d="M 727.25 611.136719 C 725.707031 612.820312 716.300781 602.714844 714.96875 601.238281 C 695.453125 579.058594 690.890625 548.527344 672.082031 524.734375 C 659.445312 508.800781 650.390625 497.570312 642.742188 477.566406 L 631.582031 464.300781 C 613.894531 487.953125 592.414062 510.835938 583.359375 539.261719 C 596.554688 533.648438 587.921875 553.230469 587.851562 561.441406 C 587.851562 566.496094 590.449219 571.550781 590.308594 573.09375 C 589.816406 578.777344 582.378906 586.921875 584.90625 594.359375 L 590.660156 579.480469 L 594.101562 577.515625 C 593.398438 581.234375 595.644531 585.238281 595.292969 588.675781 C 595.082031 590.992188 591.503906 596.1875 592.554688 597.449219 C 592.976562 597.941406 599.925781 594.082031 601.75 603.554688 L 592.554688 600.539062 C 592.835938 622.015625 577.394531 638.019531 572.761719 658.023438 C 572.550781 662.164062 572.972656 661.390625 574.585938 658.304688 C 577.746094 651.988281 579.640625 646.230469 585.675781 641.878906 C 585.675781 654.09375 579.078125 667.570312 571.148438 677.042969 L 580.132812 669.957031 L 587.992188 649.53125 C 589.816406 660.339844 580.832031 669.886719 582.660156 680.132812 L 586.449219 677.113281 L 587.992188 681.675781 C 593.820312 674.730469 591.574219 669.183594 593.257812 661.742188 C 595.292969 652.757812 599.644531 644.757812 601.75 635.84375 C 609.753906 638.300781 608.839844 647.144531 610.804688 650.441406 C 612.066406 652.476562 635.933594 677.957031 637.6875 678.730469 C 639.582031 679.570312 640.355469 678.519531 639.863281 676.554688 C 638.109375 669.464844 634.179688 662.234375 635.371094 654.304688 C 636.566406 652.6875 653.199219 682.097656 653.761719 684.90625 L 643.023438 683.363281 C 645.339844 701.472656 631.511719 684.273438 629.265625 686.449219 C 634.25 698.101562 645.128906 696.980469 640.847656 712.632812 C 640.144531 715.296875 631.722656 717.964844 641.40625 720.984375 C 653.058594 724.632812 656.640625 719.511719 662.113281 735.511719 C 664.921875 743.65625 664.078125 769.625 662.113281 778.328125 C 659.304688 791.3125 646.671875 803.738281 638.390625 813.492188 C 653.480469 808.089844 664.148438 794.613281 674.398438 782.890625 L 676.714844 790.542969 C 681.277344 792.367188 688.152344 779.382812 691.242188 784.433594 C 692.785156 786.890625 682.328125 801.773438 690.46875 814.265625 C 692.296875 817.074219 697.699219 820.164062 698.894531 822.6875 C 701.421875 828.234375 696.367188 836.234375 695.382812 842.0625 L 679.800781 870.066406 C 686.1875 863.328125 689.417969 867.257812 695.804688 867.121094 C 699.945312 866.980469 703.667969 864.3125 708.089844 863.960938 C 716.933594 863.257812 723.109375 866.769531 725.707031 875.472656 L 718.054688 871.679688 C 718.898438 886.421875 723.179688 908.179688 740.585938 911.128906 C 743.746094 911.691406 753.851562 911.058594 754.625 911.691406 C 755.394531 912.320312 755.957031 920.394531 756.308594 920.746094 C 756.660156 921.09375 762.414062 919.199219 765.785156 919.550781 C 770.207031 919.972656 779.402344 923.902344 782.699219 926.851562 C 787.753906 931.414062 787.191406 937.660156 789.929688 941.519531 C 795.054688 948.609375 820.8125 958.996094 826.78125 968.964844 C 824.324219 970.507812 819.902344 967.140625 817.585938 965.945312 C 811.757812 962.929688 792.105469 950.363281 787.683594 949.804688 C 785.4375 949.523438 779.683594 962.015625 779.753906 962.859375 C 780.101562 967 837.519531 1008.480469 842.082031 1018.660156 L 795.335938 1001.882812 L 792.316406 1007.992188 L 732.585938 977.457031 C 729.707031 978.722656 729.636719 985.671875 728.582031 986.441406 C 726.546875 987.777344 710.195312 984.476562 713.632812 994.792969 C 714.40625 997.179688 731.179688 1006.445312 734.761719 1008.902344 C 737.425781 1010.726562 739.253906 1013.675781 741.988281 1015.5 C 744.375 1017.046875 748.519531 1016.0625 748.65625 1018.730469 C 738.269531 1018.238281 727.53125 1019.429688 717.214844 1018.800781 C 713.492188 1018.589844 701.769531 1017.675781 699.175781 1016.90625 C 695.945312 1015.992188 685.488281 995.636719 678.257812 994.234375 C 681.136719 1007.289062 694.261719 1014.027344 699.664062 1025.609375 C 700.015625 1026.660156 698.402344 1026.660156 697.417969 1026.308594 C 692.785156 1024.835938 682.46875 1014.519531 677.203125 1011.289062 C 656.988281 998.867188 632.703125 994.234375 610.875 985.742188 C 585.535156 975.914062 561.039062 962.648438 535.84375 952.121094 C 514.363281 943.207031 491.832031 938.292969 471.96875 925.65625 C 435.398438 902.425781 418.625 881.71875 390.480469 851.046875 C 378.335938 837.78125 362.613281 829.496094 351.382812 816.652344 C 347.734375 812.511719 334.257812 793.351562 332.921875 789.136719 C 332.222656 786.820312 331.800781 785.347656 332.921875 782.960938 C 333.695312 781.488281 352.855469 765.273438 356.648438 760.710938 C 364.507812 751.234375 370.40625 739.515625 377.351562 729.40625 C 382.125 733.757812 394.269531 748.5 401.007812 745.480469 C 407.746094 742.460938 409.921875 728.355469 413.007812 722.175781 C 414.273438 719.71875 441.15625 692.558594 443.261719 691.222656 C 448.105469 688.207031 459.828125 688.695312 464.527344 684.90625 C 467.476562 682.519531 479.410156 658.726562 483.058594 652.96875 C 493.308594 636.824219 505.027344 621.523438 514.574219 604.890625 C 522.296875 591.484375 528.261719 573.375 535.703125 561.722656 C 548.6875 541.507812 581.886719 511.816406 599.292969 492.09375 C 603.433594 487.390625 627.582031 455.875 629.898438 455.386719 C 632.214844 454.894531 632.351562 456.71875 633.476562 457.910156 C 642.039062 466.964844 651.9375 487.320312 660.007812 498.691406 C 674.046875 518.484375 684.292969 534.769531 697.347656 554.703125 C 702.824219 563.054688 713.632812 570.355469 717.632812 577.234375 C 722.757812 586.007812 723.390625 601.589844 727.039062 611.417969 Z M 581.816406 719.789062 C 583.851562 717.613281 583.21875 700.839844 583.359375 696.839844 C 577.464844 699.925781 578.027344 711.648438 578.796875 717.542969 C 579.078125 719.648438 579.710938 722.105469 581.816406 719.789062 Z M 581.816406 719.789062 "  fill-rule="nonzero"/>
    <path d="M 750.203125 630.226562 C 749.640625 628.191406 742.339844 623.980469 740.234375 621.875 C 734.550781 616.191406 730.621094 609.523438 730.339844 601.167969 C 729.917969 588.183594 739.394531 608.890625 740.234375 609.664062 C 742.902344 612.328125 747.816406 612.609375 750.34375 615.277344 C 754.132812 619.417969 753.851562 627.492188 756.378906 630.226562 C 757.710938 631.632812 761.292969 632.261719 763.328125 634.019531 C 767.257812 637.527344 768.382812 644.195312 776.3125 640.96875 C 768.453125 634.160156 764.171875 621.035156 757.222656 614.085938 C 752.519531 609.382812 744.9375 607.628906 739.601562 602.644531 C 734.902344 598.292969 727.601562 588.324219 725.847656 582.007812 L 787.824219 636.824219 C 817.234375 601.097656 850.503906 565.371094 871.28125 523.890625 C 876.964844 527.46875 872.121094 539.121094 882.371094 537.367188 C 890.722656 535.964844 902.375 512.660156 912.550781 510.0625 L 915.640625 517.714844 L 918.65625 510.0625 C 926.449219 520.660156 932.976562 530.980469 937.046875 543.683594 C 932.203125 544.035156 931.292969 536.664062 927.851562 535.191406 C 926.660156 534.699219 921.253906 539.753906 917.183594 531.472656 C 917.746094 538.910156 916.203125 534.699219 914.445312 534.910156 C 907.21875 536.03125 917.253906 541.085938 915.640625 546.703125 C 914.796875 547.683594 908.058594 543.121094 907.148438 542.140625 C 904.410156 539.121094 906.304688 535.121094 901.882812 535.964844 L 901.882812 543.613281 C 901.25 544.316406 896.6875 541.4375 895.847656 542.070312 C 895.214844 542.5625 890.371094 553.722656 889.667969 555.828125 C 891.074219 557.230469 897.460938 551.824219 899.847656 551.617188 C 906.375 551.054688 928.90625 580.394531 937.890625 584.957031 C 940.839844 586.429688 939.785156 578.636719 941.679688 577.9375 L 940.207031 569.652344 L 955.507812 583.410156 L 951.71875 566.566406 C 955.507812 569.652344 975.230469 594.082031 975.089844 596.398438 C 974.949219 598.574219 969.828125 602.011719 967.160156 601.800781 C 962.878906 601.378906 947.714844 592.535156 945.609375 592.675781 C 943.714844 592.816406 943.292969 599.132812 941.046875 600.257812 C 935.855469 594.5 927.433594 585.167969 928.0625 598.78125 C 923.570312 599.976562 924.695312 593.519531 920.414062 592.675781 L 924.203125 606.433594 L 908.902344 592.675781 L 911.988281 603.34375 L 894.371094 591.132812 C 904.972656 613.453125 917.394531 635.421875 935.714844 652.339844 L 929.609375 633.949219 C 947.15625 639.914062 941.1875 663.988281 953.402344 676.695312 C 958.316406 681.816406 959.4375 677.746094 963.789062 679.992188 C 974.179688 685.257812 977.195312 705.050781 961.753906 689.046875 C 960.28125 690.171875 961.683594 699.855469 957.964844 698.242188 L 937.257812 675.289062 C 937.890625 688.136719 954.523438 695.785156 954.875 707.4375 C 951.085938 703.925781 947.578125 698.523438 941.890625 698.242188 C 943.785156 712.492188 949.542969 733.195312 961.894531 741.761719 C 967.089844 745.410156 979.160156 747.304688 981.828125 750.953125 C 985.199219 755.445312 980.707031 758.324219 980.425781 762.046875 C 980.144531 765.765625 989.621094 769.414062 991.65625 773.207031 L 993.972656 765.554688 C 1013.34375 772.644531 1004.640625 810.335938 985.550781 786.960938 C 984.074219 795.664062 996.007812 798.753906 1001.550781 803.105469 C 1007.800781 808.089844 1012.851562 813.914062 1013.90625 822.128906 C 1032.507812 806.335938 1028.855469 829.636719 1038.332031 839.746094 C 1035.03125 844.449219 1031.101562 835.535156 1026.117188 837.429688 C 1022.117188 841.640625 1042.613281 863.117188 1045.773438 867.539062 C 1047.527344 869.996094 1049.351562 875.542969 1050.613281 876.523438 C 1054.546875 879.613281 1056.089844 860.382812 1059.039062 860.453125 C 1064.300781 865.855469 1068.234375 874.628906 1076.65625 875.683594 C 1075.390625 863.679688 1061.984375 856.941406 1056.722656 848.941406 C 1053.773438 844.449219 1058.96875 844.378906 1062.898438 847.324219 C 1078.269531 858.90625 1076.445312 870.066406 1084.164062 882.28125 C 1085.429688 884.246094 1090.0625 884.035156 1088.796875 888.667969 C 1087.324219 894.28125 1072.164062 884.175781 1069.636719 881.789062 C 1068.09375 881.929688 1068.863281 884.175781 1069.214844 885.226562 C 1071.320312 890.914062 1078.480469 902.003906 1081.988281 907.617188 C 1090.765625 921.726562 1102.765625 934.082031 1108.664062 949.804688 L 1068.863281 909.234375 C 1076.09375 928.324219 1087.675781 945.871094 1095.1875 964.753906 C 1095.746094 966.226562 1097.644531 969.457031 1095.675781 970.4375 C 1068.445312 944.398438 1036.015625 919.410156 1011.449219 890.914062 C 990.53125 866.628906 980.214844 835.535156 964.492188 807.808594 C 960.914062 801.421875 940.558594 767.167969 936.488281 765.414062 C 932.273438 764.710938 934.589844 769.203125 935.433594 771.097656 C 938.242188 777.207031 971.722656 822.828125 969.40625 825.074219 C 965.894531 825.214844 963.160156 821.285156 960.984375 818.96875 C 952.417969 809.984375 940.628906 789.488281 931.925781 783.734375 C 929.820312 782.398438 928.132812 782.539062 928.132812 784.503906 C 928.132812 787.59375 957.261719 829.847656 961.472656 836.867188 C 969.617188 850.625 977.125 864.804688 981.6875 880.175781 L 968.703125 863.328125 C 966.667969 864.3125 968.5625 867.539062 969.195312 869.015625 C 976.917969 888.527344 1008.289062 920.253906 1021.90625 940.328125 C 1032.226562 955.558594 1042.402344 971.703125 1049.140625 988.898438 L 973.40625 907.757812 C 963.929688 904.109375 958.316406 904.25 950.382812 897.089844 C 948.347656 895.265625 943.296875 888.035156 942.734375 887.894531 C 940.699219 887.402344 936.347656 894.492188 929.046875 894.140625 C 910.585938 893.300781 890.933594 857.644531 880.054688 845.007812 C 871.351562 834.972656 859.839844 828.515625 850.925781 819.039062 C 838.570312 805.984375 828.816406 788.015625 814.988281 776.152344 L 812.671875 785.347656 C 808.460938 780.574219 805.300781 774.890625 804.179688 768.503906 L 800.386719 773.066406 C 776.523438 755.726562 763.117188 730.039062 743.746094 708.839844 C 742.199219 711.296875 745.570312 715.71875 746.761719 718.035156 C 753.011719 730.039062 784.523438 778.117188 794.210938 783.945312 C 796.527344 785.347656 798.421875 783.242188 801.160156 785.980469 C 805.792969 790.613281 812.8125 809.28125 818.847656 817.355469 C 824.882812 825.425781 849.519531 847.324219 851.625 851.957031 C 851.90625 852.660156 852.046875 854.484375 850.855469 854.203125 C 843.273438 847.675781 833.378906 842.761719 825.726562 836.515625 C 818.496094 830.621094 804.878906 812.863281 797.160156 811.457031 C 791.613281 810.476562 788.667969 812.722656 782.769531 809.003906 C 768.3125 799.949219 760.167969 772.503906 749.640625 757.902344 C 739.742188 744.214844 726.546875 733.476562 716.089844 721.054688 C 695.453125 696.558594 687.171875 657.8125 670.675781 628.753906 C 668.640625 625.175781 662.816406 618.789062 661.832031 616.191406 C 661.0625 614.296875 662.113281 613.382812 664.078125 613.945312 C 690.679688 621.875 700.789062 654.375 720.792969 669.042969 C 738.269531 681.886719 743.042969 674.449219 738.410156 655.285156 L 749.921875 662.9375 C 754.625 663.359375 750.695312 661.253906 750.695312 660.691406 C 750.695312 653.882812 752.027344 634.929688 750.695312 630.085938 Z M 875.773438 543.824219 C 872.472656 541.085938 860.050781 554.210938 862.015625 559.125 C 864.261719 561.582031 872.964844 550.351562 871.210938 546.914062 C 875 547.195312 873.035156 556.597656 874.296875 557.652344 C 883.773438 554.28125 886.511719 559.757812 884.96875 546.914062 L 877.316406 551.476562 C 876.613281 550 876.054688 544.105469 875.773438 543.824219 Z M 978.320312 768.78125 C 980.636719 766.675781 969.40625 757.832031 967.652344 759.589844 C 967.792969 765.273438 972.773438 769.273438 978.320312 768.78125 Z M 978.320312 768.78125 "  fill-rule="nonzero"/>
    <path d="M 320.007812 773.34375 C 329.0625 774.960938 328.007812 785.839844 331.589844 793.140625 C 339.871094 810.195312 359.664062 825.917969 369 842.972656 C 371.667969 849.640625 357.910156 838.128906 356.71875 836.867188 C 344.503906 824.792969 322.957031 786.121094 309.691406 781.347656 C 308.707031 780.996094 299.019531 779.101562 298.601562 779.453125 C 298.109375 779.875 295.441406 790.894531 295.792969 792.15625 C 296.5625 795.457031 314.113281 812.089844 316.777344 817.144531 C 318.394531 820.164062 318.183594 825.074219 318.535156 825.355469 C 320.710938 827.601562 328.710938 818.828125 330.535156 824.792969 C 332.78125 832.164062 329.0625 842.972656 324.640625 849.082031 L 332.292969 846.765625 L 329.273438 860.519531 L 335.378906 857.433594 L 336.921875 861.996094 C 334.328125 857.996094 344.222656 847.675781 346.117188 849.78125 L 344.644531 861.996094 C 348.082031 861.082031 346.328125 856.097656 350.75 857.363281 C 351.523438 865.082031 356.015625 869.085938 352.296875 877.296875 C 356.578125 876.734375 360.296875 864.453125 361.628906 863.679688 C 364.4375 862.066406 367.386719 866.207031 368.367188 866.207031 C 372.71875 866.207031 379.597656 850.765625 392.863281 865.011719 C 402.550781 875.402344 398.480469 882.910156 402.972656 891.617188 C 408.515625 902.425781 426.207031 898.84375 428.660156 919.550781 C 430.769531 937.238281 428.3125 942.011719 419.675781 956.121094 C 405.640625 979.140625 383.671875 998.515625 365.28125 1018.097656 L 361.488281 1010.445312 C 362.824219 1016.90625 358.824219 1028.554688 353.839844 1032.699219 C 351.875 1034.3125 349.980469 1033.820312 350.75 1031.152344 C 351.734375 1027.785156 361.839844 1005.113281 363.667969 1004.832031 C 364.71875 1004.691406 367.035156 1006.375 367.527344 1005.816406 C 361.910156 993.390625 362.824219 982.160156 364.4375 969.105469 C 360.648438 970.367188 342.398438 992.96875 339.941406 990.511719 L 341.484375 973.667969 C 336.222656 972.894531 332.152344 976.125 327.730469 978.230469 C 325.132812 974.859375 339.800781 958.925781 330.253906 961.664062 C 327.730469 962.367188 317.269531 970.578125 315.304688 972.753906 C 312.777344 975.632812 312.355469 978.863281 310.109375 981.316406 C 305.128906 986.722656 289.6875 992.757812 283.296875 998.09375 C 289.125 972.824219 306.53125 953.453125 323.027344 934.570312 C 316.359375 928.042969 305.617188 937.589844 300.074219 942.222656 C 284.984375 954.714844 254.167969 996.550781 236.480469 999.566406 C 228.058594 1000.972656 219.285156 998.445312 210.019531 1000.691406 C 200.054688 1003.078125 192.894531 1011.359375 184.472656 1016.484375 C 184.75 1011.078125 187.417969 1005.394531 187.910156 1000.058594 C 188.964844 989.671875 178.292969 1007.21875 176.820312 1008.832031 C 159.835938 1027.644531 139.339844 1040.488281 118.632812 1054.738281 C 116.246094 1053.402344 119.125 1051.296875 119.964844 1049.964844 C 133.511719 1029.257812 146.148438 1004.128906 160.746094 985.109375 C 166.714844 977.386719 187.417969 958.996094 189.804688 952.890625 C 192.753906 945.3125 176.539062 957.171875 175.277344 958.226562 C 155.621094 974.441406 143.550781 1004.199219 118.210938 1012.972656 C 98.347656 1019.851562 97.367188 1015.78125 78.835938 1030.242188 C 75.535156 1032.765625 65.710938 1042.945312 63.464844 1043.996094 C 62.832031 1044.277344 60.9375 1044.417969 61.21875 1043.226562 C 61.847656 1041.191406 70.972656 1029.539062 65.148438 1030.242188 C 57.777344 1031.152344 48.371094 1034.453125 41.355469 1037.121094 C 28.929688 1041.820312 18.261719 1049.472656 6.117188 1054.667969 C 14.613281 1042.453125 45.566406 1023.785156 50.476562 1011.007812 C 51.320312 1008.902344 50.199219 1008.410156 48.164062 1008.691406 C 39.738281 1009.957031 18.332031 1030.101562 7.664062 1034.03125 C 6.1875 1034.59375 2.398438 1035.714844 1.484375 1034.03125 C 24.085938 1012.484375 51.8125 994.375 78.132812 977.527344 C 99.472656 963.910156 143.902344 943.414062 159.90625 929.167969 C 166.714844 923.0625 173.242188 910.707031 179.769531 903.125 C 193.175781 887.683594 210.019531 874.839844 224.199219 860.3125 C 251.011719 832.867188 273.332031 801.28125 295.582031 770.1875 C 304.566406 769.976562 311.304688 776.714844 317.480469 782.1875 C 320.640625 780.011719 319.796875 776.433594 319.796875 773.066406 Z M 320.007812 773.34375 "  fill-rule="nonzero"/>
    <path d="M 1013.554688 647.847656 C 1011.449219 639.140625 1004.007812 631.210938 1005.132812 621.804688 C 1014.679688 632.125 1023.941406 642.722656 1034.191406 652.476562 C 1060.863281 677.816406 1108.941406 712.703125 1141.160156 730.738281 C 1146.707031 733.828125 1164.113281 739.863281 1166.78125 743.375 C 1171.132812 749.058594 1165.65625 748.777344 1165.515625 749.128906 C 1164.675781 750.816406 1169.796875 757.621094 1171.0625 760.570312 C 1179.0625 778.679688 1182.78125 790.683594 1194.503906 807.527344 C 1196.328125 810.125 1205.875 824.585938 1206.789062 825.074219 C 1209.316406 826.550781 1216.683594 824.515625 1220.683594 825.707031 C 1229.949219 828.445312 1250.9375 876.734375 1259.359375 888.035156 C 1270.941406 903.476562 1280.558594 904.53125 1293.542969 915.058594 C 1305.335938 924.605469 1309.476562 940.1875 1316.355469 953.453125 C 1319.300781 958.996094 1328.496094 970.789062 1329.832031 975.351562 C 1330.953125 979.210938 1325.058594 983.355469 1322.25 982.792969 C 1319.582031 982.230469 1298.667969 960.191406 1295.296875 956.191406 C 1268.414062 925.308594 1252.199219 893.160156 1214.578125 871.613281 C 1206.226562 866.769531 1196.46875 864.03125 1188.539062 859.328125 C 1175.625 851.746094 1163.339844 834.761719 1152.109375 823.8125 C 1117.925781 790.402344 1117.367188 793.210938 1097.992188 747.796875 C 1095.886719 742.882812 1091.886719 737.058594 1090.0625 732.707031 C 1089.78125 732.003906 1089.640625 730.179688 1090.832031 730.460938 C 1096.449219 735.511719 1101.222656 741.621094 1106.90625 746.53125 C 1108.382812 747.796875 1118.066406 756.007812 1119.191406 754.886719 C 1105.644531 728.492188 1084.65625 694.871094 1057.421875 681.1875 C 1049.84375 677.394531 1040.648438 675.640625 1033.066406 671.851562 C 1019.800781 665.183594 991.164062 629.246094 985.617188 615.207031 C 985.058594 613.734375 983.164062 610.503906 985.128906 609.523438 C 998.042969 619.628906 1002.746094 635.914062 1013.414062 647.777344 Z M 1013.554688 647.847656 "  fill-rule="nonzero"/>
    <path d="M 482.285156 976.894531 C 483.128906 977.738281 496.394531 974.648438 504.46875 983.003906 C 508.398438 987.003906 509.101562 992.898438 512.1875 996.761719 C 515.976562 1001.460938 524.683594 1003.570312 523.628906 1012.132812 C 518.363281 1011.992188 513.03125 1012.484375 507.765625 1011.921875 C 497.167969 1010.796875 481.9375 1003.289062 473.722656 1002.9375 C 469.652344 1002.796875 457.371094 1010.097656 456.246094 1008.972656 C 461.722656 995.636719 452.808594 984.6875 439.402344 982.933594 C 443.964844 966.367188 456.175781 957.945312 473.511719 961.875 C 484.8125 964.402344 481.585938 976.195312 482.21875 976.894531 Z M 482.285156 976.894531 "  fill-rule="nonzero"/>
    <path d="M 1449.855469 1054.949219 C 1431.605469 1048.140625 1414.339844 1034.523438 1400.089844 1021.328125 C 1387.175781 1009.394531 1368.503906 989.953125 1358.046875 976.125 C 1352.082031 968.191406 1347.378906 960.472656 1344.21875 950.925781 C 1345.34375 949.804688 1353.484375 956.542969 1354.957031 957.804688 C 1373.347656 973.457031 1391.597656 995.003906 1409.214844 1012.203125 C 1413.285156 1016.203125 1454.207031 1050.597656 1449.785156 1055.019531 Z M 1449.855469 1054.949219 "  fill-rule="nonzero"/>
    <path d="M 681.277344 666.234375 L 618.875 613.875 C 616 604.257812 623.507812 590.148438 634.457031 591.273438 C 645.410156 592.394531 656.429688 620.824219 661.691406 630.019531 C 668.429688 641.808594 678.679688 652.269531 681.277344 666.304688 Z M 681.277344 666.234375 "  fill-rule="nonzero"/>
    <path d="M 1183.484375 471.878906 C 1166.359375 455.246094 1156.53125 432.996094 1134.492188 421.34375 C 1138.421875 433.695312 1150.144531 441.558594 1151.335938 455.035156 C 1155.199219 456.226562 1148.460938 435.378906 1154.355469 441.277344 C 1154.917969 441.839844 1156.601562 450.121094 1157.796875 452.367188 C 1159.410156 455.316406 1168.113281 465 1168.113281 466.546875 C 1168.183594 474.054688 1154.636719 458.683594 1154.355469 458.121094 L 1165.023438 481.847656 C 1163.621094 484.234375 1161.585938 481.496094 1160.390625 480.371094 C 1154.988281 475.179688 1138.421875 446.679688 1134.632812 438.820312 C 1129.929688 428.992188 1130.5625 424.152344 1123.683594 416.148438 C 1116.804688 408.148438 1122.488281 402.320312 1129.789062 410.746094 L 1132.105469 403.09375 C 1137.863281 409.550781 1140.738281 418.183594 1149.722656 421.414062 C 1146.074219 413.691406 1140.527344 400.496094 1132.808594 396.285156 C 1124.523438 391.792969 1122.980469 398.671875 1125.296875 384.703125 L 1148.601562 408.078125 L 1183.414062 471.949219 Z M 1183.484375 471.878906 "  fill-rule="nonzero"/>
    <path d="M 646.109375 557.582031 C 648.355469 557.722656 648.777344 552.105469 648.988281 550.492188 C 649.480469 546.210938 649.058594 541.929688 649.199219 537.648438 C 663.519531 558.144531 678.75 580.464844 685.910156 604.960938 C 673.484375 586.921875 654.742188 574.144531 640.707031 557.511719 C 630.457031 545.367188 623.507812 534.277344 627.722656 517.714844 C 628.984375 515.890625 648.355469 553.300781 646.109375 557.511719 Z M 646.109375 557.582031 "  fill-rule="nonzero"/>
    <path d="M 1192.679688 608.046875 L 1167.902344 564.742188 C 1165.9375 556.457031 1149.023438 548.246094 1146.636719 544.246094 C 1144.601562 540.945312 1138.5625 522.347656 1137.160156 517.363281 C 1136.035156 513.503906 1134.632812 509.570312 1134.492188 505.5 C 1161.9375 533.648438 1184.539062 568.882812 1192.609375 608.046875 Z M 1192.679688 608.046875 "  fill-rule="nonzero"/>
    <path d="M 1244.691406 571.339844 C 1230.863281 561.792969 1219.632812 548.316406 1203.628906 542 L 1198.785156 497.851562 C 1205.171875 504.519531 1247.496094 567.96875 1244.691406 571.339844 Z M 1244.691406 571.339844 "  fill-rule="nonzero"/>
    <path d="M 1402.40625 669.253906 C 1395.878906 661.8125 1389.632812 654.023438 1383.105469 646.441406 C 1373.066406 634.648438 1375.3125 630.789062 1368.714844 617.945312 C 1361.136719 603.066406 1347.027344 589.167969 1338.957031 574.214844 L 1310.527344 525.363281 C 1337.128906 549.859375 1350.605469 584.183594 1369.558594 614.015625 C 1381.070312 632.125 1397.632812 647.636719 1402.335938 669.253906 Z M 1402.40625 669.253906 "  fill-rule="nonzero"/>
    <path d="M 1024.222656 738.179688 C 1015.238281 731.582031 1002.605469 723.863281 996.917969 714.246094 C 993.902344 709.121094 993.058594 703.085938 988.988281 697.679688 C 980.144531 685.75 956.140625 676.0625 949.121094 664.058594 C 945.261719 657.460938 948.066406 654.652344 954.664062 658.515625 C 956.351562 659.496094 957.894531 662.515625 960 663.917969 C 970.808594 670.867188 982.039062 682.097656 992.078125 691.503906 C 1003.167969 701.890625 1014.957031 718.386719 1022.117188 731.863281 C 1023.242188 733.96875 1024.855469 735.371094 1024.152344 738.179688 Z M 1024.222656 738.179688 "  fill-rule="nonzero"/>
    <path d="M 791.542969 857.503906 C 797.089844 862.699219 791.261719 849.429688 794.5625 849.851562 C 794.5625 851.746094 795.753906 853.011719 797.089844 854.203125 C 809.652344 865.363281 823.410156 877.71875 834.359375 890.421875 C 840.464844 897.441406 848.609375 906.144531 849.660156 915.621094 C 821.023438 884.105469 778.488281 861.222656 767.046875 817.707031 C 768.730469 815.460938 784.734375 841.640625 786 843.886719 C 787.261719 846.132812 791.050781 856.941406 791.542969 857.433594 Z M 791.542969 857.503906 "  fill-rule="nonzero"/>
    <path d="M 1102.34375 808.582031 C 1081.148438 782.890625 1061.144531 755.585938 1048.789062 724.421875 C 1052.511719 720.914062 1064.863281 744.988281 1068.652344 745.832031 C 1067.671875 740.496094 1064.089844 736.425781 1062.898438 730.949219 C 1062.546875 729.335938 1061.074219 722.808594 1064.019531 722.878906 L 1102.273438 808.582031 Z M 1102.34375 808.582031 "  fill-rule="nonzero"/>
    <path d="M 607.855469 588.183594 C 604.207031 588.394531 605.191406 588.675781 604.839844 585.867188 C 604.066406 579.761719 599.855469 545.296875 603.222656 542.910156 L 609.402344 543.753906 C 608.347656 530.136719 601.890625 515.117188 610.171875 502.414062 C 613.753906 503.746094 622.808594 509.78125 622.808594 513.574219 L 607.855469 588.113281 Z M 607.855469 588.183594 "  fill-rule="nonzero"/>
    <path d="M 780.804688 891.195312 C 767.890625 883.894531 756.449219 874.417969 746.339844 863.679688 C 744.9375 863.398438 745.921875 865.855469 745.289062 866.347656 C 740.375 870.347656 726.757812 848.871094 727.179688 843.816406 L 740.164062 856.027344 C 741.78125 853.222656 736.796875 849.710938 734.972656 845.921875 C 732.933594 841.640625 731.25 836.234375 730.199219 831.601562 C 731.742188 829.917969 738.128906 837.148438 739.394531 838.410156 C 744.445312 843.675781 784.316406 886.914062 780.664062 891.265625 Z M 780.804688 891.195312 "  fill-rule="nonzero"/>
    <path d="M 437.855469 946.292969 C 438.347656 946.785156 442.277344 958.578125 442.347656 959.277344 C 442.347656 961.382812 436.875 978.230469 435.539062 979.914062 C 432.804688 983.355469 418.203125 986.511719 413.429688 989.179688 L 434.488281 948.328125 C 434.136719 946.011719 437.296875 945.730469 437.925781 946.363281 Z M 437.855469 946.292969 "  fill-rule="nonzero"/>
    <path d="M 1264.625 952.398438 L 1256.621094 944.328125 L 1218.71875 883.542969 C 1221.597656 882.84375 1222.371094 885.15625 1224.054688 886.5625 C 1243.988281 903.265625 1253.605469 929.589844 1264.625 952.398438 Z M 1264.625 952.398438 "  fill-rule="nonzero"/>
    <path d="M 744.09375 882 C 732.585938 870.207031 716.230469 861.292969 710.40625 845.289062 C 707.527344 845.851562 708.859375 850.414062 706.542969 852.941406 C 701.699219 858.34375 694.332031 842.414062 705.632812 841.429688 C 708.929688 841.148438 728.304688 856.519531 731.671875 860.03125 C 737.425781 865.925781 742.761719 873.789062 744.09375 882.070312 Z M 744.09375 882 "  fill-rule="nonzero"/>
    <path d="M 1113.085938 800.929688 C 1110.066406 801.421875 1108.734375 798.894531 1106.976562 797.070312 C 1094.835938 783.875 1083.464844 764.851562 1079.394531 747.375 C 1087.816406 754.183594 1094.203125 765.695312 1099.886719 775.03125 C 1102.136719 778.679688 1115.050781 798.683594 1113.015625 800.929688 Z M 1113.085938 800.929688 "  fill-rule="nonzero"/>
    <path d="M 1096.167969 984.546875 C 1096.167969 984.546875 1097.992188 989.25 1099.539062 991.144531 C 1109.644531 1003.5 1119.542969 1011.21875 1129.929688 1022.027344 C 1131.964844 1024.132812 1135.546875 1028.976562 1136.035156 1031.925781 C 1133.929688 1034.101562 1115.402344 1014.871094 1113.085938 1012.761719 C 1109.082031 1009.113281 1102.554688 1006.09375 1099.257812 1002.09375 C 1095.746094 997.882812 1089.851562 979.074219 1096.167969 984.476562 Z M 1096.167969 984.546875 "  fill-rule="nonzero"/>
    <path d="M 1114.558594 840.65625 C 1105.503906 840.867188 1104.519531 830.199219 1099.328125 824.515625 C 1090.34375 814.757812 1068.09375 809.140625 1073.214844 791.664062 C 1076.515625 790.964844 1076.65625 793.347656 1078.058594 795.246094 C 1083.253906 802.332031 1088.097656 809.492188 1093.851562 816.160156 C 1095.886719 818.546875 1117.15625 838.269531 1114.558594 840.585938 Z M 1114.558594 840.65625 "  fill-rule="nonzero"/>
    <path d="M 1243.214844 1004.410156 C 1229.460938 998.726562 1215.140625 981.808594 1217.175781 966.15625 L 1235.285156 990.164062 Z M 1243.214844 1004.410156 "  fill-rule="nonzero"/>
    <path d="M 1217.175781 797.839844 C 1215.5625 799.386719 1201.3125 785.980469 1199.558594 784.085938 C 1197.664062 782.050781 1180.886719 760.640625 1181.941406 759.589844 C 1200.050781 764.78125 1205.664062 785.136719 1217.175781 797.839844 Z M 1217.175781 797.839844 "  fill-rule="nonzero"/>
    <path d="M 734.902344 808.582031 C 722.546875 805 711.457031 792.71875 711.949219 779.523438 C 715.949219 782.960938 739.742188 803.246094 734.902344 808.582031 Z M 734.902344 808.582031 "  fill-rule="nonzero"/>
    <path d="M 1267.710938 1007.5 C 1260.625 1001.324219 1256.832031 991.285156 1250.867188 983.84375 C 1246.726562 978.652344 1240.550781 974.441406 1236.476562 969.105469 C 1235.707031 968.050781 1230.371094 961.734375 1234.792969 961.664062 C 1243.355469 961.523438 1265.886719 997.953125 1267.710938 1007.570312 Z M 1267.710938 1007.5 "  fill-rule="nonzero"/>
    <path d="M 1263.082031 865.152344 C 1250.445312 860.3125 1240.269531 846.414062 1238.582031 833.007812 C 1243.777344 834.621094 1265.816406 862.347656 1263.082031 865.152344 Z M 1263.082031 865.152344 "  fill-rule="nonzero"/>
    <path d="M 1068.652344 808.582031 L 1061.285156 792.226562 C 1054.828125 781.488281 1047.457031 770.890625 1045.703125 758.042969 C 1057.984375 771.660156 1065.636719 790.613281 1068.652344 808.511719 Z M 1068.652344 808.582031 "  fill-rule="nonzero"/>
    <path d="M 1087.816406 895.828125 C 1092.308594 897.792969 1103.328125 922.148438 1095.464844 921.796875 C 1093.921875 921.796875 1076.796875 898.914062 1087.816406 895.828125 Z M 1087.816406 895.828125 "  fill-rule="nonzero"/>
    <path d="M 1102.34375 875.894531 C 1102.765625 876.382812 1104.660156 884.457031 1106.625 887.683594 C 1112.03125 896.316406 1122.699219 903.546875 1123.753906 914.148438 L 1103.539062 892.316406 C 1101.082031 891.6875 1097.011719 870.136719 1102.34375 875.894531 Z M 1102.34375 875.894531 "  fill-rule="nonzero"/>
    <path d="M 696.648438 774.890625 C 687.804688 768.921875 678.679688 754.183594 689.769531 745.832031 Z M 696.648438 774.890625 "  fill-rule="nonzero"/>
    <path d="M 1131.402344 912.601562 L 1119.894531 886.632812 L 1119.191406 878.910156 C 1124.386719 872.945312 1135.195312 908.601562 1131.402344 912.53125 Z M 1131.402344 912.601562 "  fill-rule="nonzero"/>
    <path d="M 667.519531 722.878906 C 670.253906 719.929688 681.207031 737.6875 681.976562 739.792969 C 683.171875 742.953125 683.242188 743.726562 680.503906 745.832031 C 671.660156 742.039062 668.359375 731.652344 667.519531 722.878906 Z M 667.519531 722.878906 "  fill-rule="nonzero"/>
    <path d="M 722.6875 771.800781 C 719.808594 772.714844 718.828125 769.203125 717.074219 768.992188 C 715.035156 768.714844 713.773438 771.308594 712.441406 771.589844 C 706.402344 772.855469 705.070312 754.535156 704.367188 750.394531 L 722.757812 771.800781 Z M 722.6875 771.800781 "  fill-rule="nonzero"/>
    <path d="M 646.109375 494.832031 C 646.8125 495.464844 654.464844 511.046875 653.761719 511.675781 L 644.566406 510.132812 L 643.792969 516.238281 C 639.652344 511.816406 641.335938 502.34375 642.953125 497.078125 C 643.441406 495.394531 643.371094 492.515625 646.039062 494.832031 Z M 646.109375 494.832031 "  fill-rule="nonzero"/>
    <path d="M 1031.875 696.839844 C 1023.171875 690.242188 1014.328125 680.976562 1015.097656 669.324219 C 1021.488281 677.324219 1030.46875 686.378906 1031.875 696.839844 Z M 1031.875 696.839844 "  fill-rule="nonzero"/>
    <path d="M 987.515625 597.378906 C 983.09375 601.519531 967.160156 578.21875 969.195312 575.972656 C 973.054688 577.023438 990.882812 594.289062 987.515625 597.378906 Z M 987.515625 597.378906 "  fill-rule="nonzero"/>
    <path d="M 1128.386719 519.328125 L 1129.929688 548.386719 C 1127.964844 548.175781 1125.71875 543.050781 1125.296875 541.578125 C 1123.261719 534.699219 1123.191406 529.855469 1125.15625 522.90625 C 1125.859375 520.3125 1124.035156 518.625 1128.386719 519.398438 Z M 1128.386719 519.328125 "  fill-rule="nonzero"/>
    <path d="M 779.332031 862.136719 C 774.136719 867.75 766.484375 842.554688 767.117188 839.183594 C 771.1875 841.289062 782.070312 859.1875 779.332031 862.136719 Z M 779.332031 862.136719 "  fill-rule="nonzero"/>
    <path d="M 1270.238281 879.472656 C 1271.855469 881.015625 1283.855469 896.457031 1283.015625 897.300781 C 1274.382812 893.722656 1265.117188 885.929688 1264.625 875.894531 C 1264.835938 875.613281 1269.398438 878.699219 1270.167969 879.472656 Z M 1270.238281 879.472656 "  fill-rule="nonzero"/>
    <path d="M 1402.40625 687.644531 C 1399.949219 690.242188 1399.109375 685.539062 1398.40625 684.765625 C 1392.722656 678.308594 1389.140625 671.570312 1387.105469 663.148438 C 1391.246094 659.144531 1403.460938 686.519531 1402.40625 687.574219 Z M 1402.40625 687.644531 "  fill-rule="nonzero"/>
    <path d="M 1185.027344 485.636719 C 1182.503906 489.214844 1192.117188 508.871094 1184.328125 507.042969 C 1180.886719 506.203125 1176.746094 484.792969 1185.027344 485.636719 Z M 1185.027344 485.636719 "  fill-rule="nonzero"/>
    <path d="M 1333.550781 580.535156 C 1328.847656 579.128906 1316.847656 560.949219 1319.792969 557.582031 C 1322.953125 556.949219 1323.375 559.125 1324.707031 561.089844 C 1328.144531 566.144531 1331.375 574.636719 1333.550781 580.535156 Z M 1333.550781 580.535156 "  fill-rule="nonzero"/>
    <path d="M 825.234375 810.054688 C 816.953125 808.371094 815.269531 797.28125 816.039062 790.191406 C 819.269531 791.804688 826.640625 808.511719 825.234375 810.054688 Z M 825.234375 810.054688 "  fill-rule="nonzero"/>
    <path d="M 1045.703125 706.035156 C 1039.175781 704.207031 1033.488281 697.539062 1035.03125 690.730469 C 1041.140625 694.101562 1046.753906 698.03125 1045.703125 706.035156 Z M 1045.703125 706.035156 "  fill-rule="nonzero"/>
    <path d="M 1110.769531 389.265625 C 1112.804688 391.371094 1115.679688 392.984375 1116.171875 396.214844 C 1118.277344 409.691406 1101.785156 399.164062 1110.769531 389.265625 Z M 1110.769531 389.265625 "  fill-rule="nonzero"/>
    <path d="M 1278.382812 958.507812 C 1271.011719 958.015625 1266.378906 950.082031 1266.167969 943.207031 C 1268.976562 940.1875 1277.890625 956.402344 1278.382812 958.507812 Z M 1278.382812 958.507812 "  fill-rule="nonzero"/>
    <path d="M 629.265625 484.09375 C 630.386719 485.214844 635.230469 498.128906 628.492188 497.5 C 621.753906 496.867188 625.265625 480.230469 629.265625 484.09375 Z M 629.265625 484.09375 "  fill-rule="nonzero"/>
    <path d="M 1419.253906 751.9375 C 1415.253906 755.867188 1409.496094 742.601562 1410.058594 739.722656 C 1411.953125 737.617188 1421.21875 749.972656 1419.253906 751.9375 Z M 1419.253906 751.9375 "  fill-rule="nonzero"/>
  </g>
</svg>